<svg width="512" height="512" viewBox="0 0 512 512" fill="none" xmlns="http://www.w3.org/2000/svg">
  <rect width="512" height="512" fill="#F2F2F2"/>
  <g transform="translate(86 66)">
    <path d="M14 24 C18 20, 38 18, 42 24" stroke="#111111" stroke-width="6" fill="none" stroke-linecap="round"/>
    <path d="M14 24 L14 344" stroke="#111111" stroke-width="6" fill="none" stroke-linecap="round"/>
    <path d="M14 344 C118 350, 228 350, 334 344" stroke="#111111" stroke-width="6" fill="none" stroke-linecap="round"/>
    <path d="M334 24 L334 344" stroke="#111111" stroke-width="6" fill="none" stroke-linecap="round"/>
    <path d="M42 24 C132 28, 230 28, 334 24" stroke="#111111" stroke-width="6" fill="none" stroke-linecap="round"/>

    <path d="M160 24 C210 56, 236 120, 244 184" stroke="#111111" stroke-width="6" fill="none" stroke-linecap="round"/>
    <circle cx="244" cy="186" r="10" fill="#F2F2F2" stroke="#111111" stroke-width="5"/>

    <path d="M245 271 C205 220, 182 202, 182 179 C182 156 199 142 218 142 C231 142 240 148 245 160 C251 148 260 142 273 142 C293 142 309 156 309 179 C309 202 286 220 245 271 Z" fill="#FF4D6D" stroke="#111111" stroke-width="6" stroke-linejoin="round"/>
    <path d="M195 170 C198 160, 210 153, 220 154" stroke="#FF8CA3" stroke-width="7" stroke-linecap="round"/>
  </g>
</svg>
